Coordinates
version=1
nRows=11
nColumns=40
inDegrees=yes

Units are S.I. units (second, meters, Newtons, ...)
Angles are in degrees.

endheader
time	pelvis_tilt	pelvis_list	pelvis_rotation	pelvis_tx	pelvis_ty	pelvis_tz	hip_flexion_r	hip_adduction_r	hip_rotation_r	knee_angle_r	knee_angle_r_beta	ankle_angle_r	subtalar_angle_r	mtp_angle_r	hip_flexion_l	hip_adduction_l	hip_rotation_l	knee_angle_l	knee_angle_l_beta	ankle_angle_l	subtalar_angle_l	mtp_angle_l	lumbar_extension	lumbar_bending	lumbar_rotation	arm_flex_r	arm_add_r	arm_rot_r	elbow_flex_r	pro_sup_r	wrist_flex_r	wrist_dev_r	arm_flex_l	arm_add_l	arm_rot_l	elbow_flex_l	pro_sup_l	wrist_flex_l	wrist_dev_l
      0.00000000	      3.33224112	     -2.92109358	      3.21253953	     -1.16325958	      0.88970405	      1.02517772	     -5.91944307	      4.31459852	    -17.09906174	    -18.97630285	     -0.33119896	     14.17662772	      2.00882497	     -6.02653306	     21.93044249	      3.42196387	      8.24061061	    -19.44802776	     -0.33943212	     -1.90616388	     -4.09592752	    -11.07217106	    -12.55088666	      4.28227668	      5.71765781	     14.37476769	    -13.35393241	     20.05639187	     19.67881977	     89.95437384	      0.00000000	      0.00000000	     -1.23004474	      7.23806326	     -9.53236955	     23.81616249	     89.95437384	      0.00000000	      0.00000000
      0.01000000	      3.09168968	     -3.01615076	      3.15405077	     -1.15686628	      0.88852659	      1.02485467	     -6.07042131	      4.40208893	    -16.91227656	    -19.06652541	     -0.33277365	     14.41559318	      2.02823894	     -6.06380165	     22.11922372	      3.43989147	      8.77516036	    -17.52981278	     -0.30595295	     -1.85863432	     -4.49504063	    -11.04713996	    -12.37873618	      4.34408916	      5.74385116	     14.60409239	    -13.37113684	     20.02964353	     19.92692368	     89.95437384	      0.00000000	      0.00000000	     -1.41817855	      7.03332061	     -9.38393519	     23.54607831	     89.95437384	      0.00000000	      0.00000000
      0.02000000	      2.93722352	     -2.98776138	      2.97199036	     -1.15017258	      0.88750759	      1.02462814	     -6.29830747	      4.29200210	    -16.83188815	    -19.25167330	     -0.33600509	     14.58850174	      1.96514792	     -6.07684908	     22.17713644	      3.40781304	      9.70939456	    -15.87447414	     -0.27706184	     -1.94403205	     -4.64996404	    -10.95963964	    -12.28865297	      4.23218260	      5.85559525	     14.72093532	    -13.35094503	     19.97578842	     20.29338513	     89.95437384	      0.00000000	      0.00000000	     -1.58250245	      6.80197920	     -8.94979511	     23.27359872	     89.95437384	      0.00000000	      0.00000000
      0.03000000	      2.75638819	     -3.18132307	      3.06049214	     -1.14338922	      0.88629249	      1.02431622	     -6.54965039	      4.49690814	    -16.97659255	    -19.32766118	     -0.33733132	     14.78026908	      1.91909054	     -6.08560124	     22.51984441	      3.58164538	     10.51887754	    -14.91690887	     -0.26034917	     -1.75019338	     -4.52478886	    -10.88092692	    -12.10261001	      4.37589740	      5.65667003	     14.90301847	    -13.24650009	     19.94901211	     20.49574348	     89.95437384	      0.00000000	      0.00000000	     -1.79890849	      6.66801558	     -8.90870376	     22.97176694	     89.95437384	      0.00000000	      0.00000000
      0.04000000	      2.73319199	     -2.99922435	      2.50645956	     -1.13645352	      0.88565298	      1.02450250	     -6.81322092	      4.16852876	    -16.37754975	    -19.76368740	     -0.34494142	     14.87313402	      2.02757236	     -6.12756394	     22.05065142	      3.45475265	     11.35352349	    -13.27367065	     -0.23166926	     -1.98202088	     -4.60819813	    -10.73745452	    -12.21022232	      4.02317749	      6.07892163	     14.97909490	    -13.20106963	     19.86189591	     20.87597810	     89.95437384	      0.00000000	      0.00000000	     -1.92733055	      6.43253833	     -8.67063935	     22.57098762	     89.95437384	      0.00000000	      0.00000000
      0.05000000	      2.62410973	     -3.07631542	      2.45899566	     -1.12943157	      0.88468970	      1.02407845	     -7.10257200	      4.19204678	    -16.35937671	    -19.94406668	     -0.34808963	     14.97251405	      1.98423755	     -6.11390356	     22.14900185	      3.50451705	     11.93919286	    -12.75775972	     -0.22266491	     -1.88289465	     -4.41234046	    -10.60958947	    -12.14157380	      4.03301101	      5.94835360	     15.10005681	    -13.08171923	     19.80100660	     21.12267543	     89.95437384	      0.00000000	      0.00000000	     -2.12132867	      6.29232315	     -8.60202704	     22.29998199	     89.95437384	      0.00000000	      0.00000000
      0.06000000	      2.86564170	     -2.79433074	      1.86299783	     -1.12202506	      0.88450966	      1.02402897	     -7.75830033	      3.71724847	    -15.75970066	    -20.23573778	     -0.35318025	     15.02963600	      2.17504177	     -6.16369121	     21.39164302	      3.29982190	     12.66752186	    -11.94882975	     -0.20854642	     -2.02162710	     -4.15062898	    -10.41335600	    -12.49096122	      3.59087988	      6.29586145	     15.19116468	    -12.96858331	     19.57095472	     21.44514928	     89.95437384	      0.00000000	      0.00000000	     -2.23260977	      6.08544372	     -8.55142249	     21.80469584	     89.95437384	      0.00000000	      0.00000000
      0.07000000	      2.65748172	     -2.83486151	      1.70293694	     -1.11470377	      0.88343810	      1.02382640	     -7.85414232	      3.64955234	    -15.61141215	    -20.61974748	     -0.35988248	     14.77243234	      2.10621710	     -6.06533469	     21.58498323	      3.33426298	     12.55941468	    -12.24308296	     -0.21368211	     -2.01932751	     -3.98831578	    -10.21786477	    -12.29711841	      3.49316496	      6.19126353	     15.16025653	    -12.80052362	     19.50545738	     21.85661856	     89.95437384	      0.00000000	      0.00000000	     -2.59027311	      6.04528228	     -8.56396397	     21.81030723	     89.95437384	      0.00000000	      0.00000000
      0.08000000	      2.72555732	     -2.90040564	      1.39444046	     -1.10715007	      0.88297765	      1.02341725	     -8.32900434	      3.57919512	    -15.24900575	    -20.86548937	     -0.36417149	     14.92833708	      2.23837101	     -6.08782429	     21.29611334	      3.43715123	     12.73408597	    -12.62604624	     -0.22036608	     -1.79601144	     -3.68401998	    -10.11125063	    -12.37952330	      3.48568328	      6.31613220	     15.25658162	    -12.64883124	     19.43942758	     21.84906212	     89.95437384	      0.00000000	      0.00000000	     -2.49924880	      5.79376373	     -8.70996144	     20.96485499	     89.95437384	      0.00000000	      0.00000000
      0.09000000	      2.47390603	     -2.90605520	      1.11942864	     -1.09932781	      0.88194053	      1.02290067	     -8.36969994	      3.39074057	    -15.02551022	    -21.31125276	     -0.37195153	     14.58816397	      2.16124249	     -5.96749565	     21.30665777	      3.40940161	     12.44983289	    -13.18025263	     -0.23003880	     -1.91020520	     -3.51525231	     -9.88162134	    -12.08867040	      3.38238268	      6.24414727	     15.11660833	    -12.52519088	     19.35039460	     22.30001317	     89.95437384	      0.00000000	      0.00000000	     -2.95434834	      5.73025594	     -8.71366455	     21.02731351	     89.95437384	      0.00000000	      0.00000000
      0.10000000	      2.50089530	     -2.93057880	      0.79490845	     -1.09143811	      0.88155115	      1.02245111	     -8.82332717	      3.25271927	    -14.73433816	    -21.54076855	     -0.37595733	     14.69886086	      2.24723068	     -5.95284830	     21.13409378	      3.45648636	     12.44586521	    -14.01572736	     -0.24462059	     -2.94957479	     -2.86115014	     -9.54084622	    -12.07241109	      3.30388377	      6.37949798	     15.10701208	    -12.34004515	     19.30535680	     22.22002790	     89.95437384	      0.00000000	      0.00000000	     -2.85006165	      5.51181142	     -9.01961277	     20.11518120	     89.95437384	      0.00000000	      0.00000000
